HIERARCHY
ROOT mixamorig_Hips
{
	OFFSET -0.000041 0.112915 0.215553
	CHANNELS 6 Xposition Yposition Zposition Xrotation Yrotation Zrotation
	JOINT mixamorig_Spine
	{
		OFFSET 0.000000 -0.008525 -0.108039
		CHANNELS 3 Xrotation Yrotation Zrotation
		JOINT mixamorig_Spine1
		{
			OFFSET 0.000000 -0.009946 -0.126046
			CHANNELS 3 Xrotation Yrotation Zrotation
			JOINT mixamorig_Spine2
			{
				OFFSET 0.000000 -0.011367 -0.144052
				CHANNELS 3 Xrotation Yrotation Zrotation
				JOINT mixamorig_Neck
				{
					OFFSET 0.000000 -0.012788 -0.162059
					CHANNELS 3 Xrotation Yrotation Zrotation
					JOINT mixamorig_Head
					{
						OFFSET 0.000000 -0.019313 -0.077391
						CHANNELS 3 Xrotation Yrotation Zrotation
						JOINT mixamorig_HeadTop_End
						{
							OFFSET 0.000000 -0.142419 -0.570699
							CHANNELS 3 Xrotation Yrotation Zrotation
							End Site
							{
								OFFSET 0.000000 -0.016881 -0.067645
							}
						}
					}
				}
				JOINT mixamorig_LeftShoulder
				{
					OFFSET 0.059117 -0.013497 -0.154003
					CHANNELS 3 Xrotation Yrotation Zrotation
					JOINT mixamorig_LeftArm
					{
						OFFSET 0.105067 -0.001420 0.016848
						CHANNELS 3 Xrotation Yrotation Zrotation
						JOINT mixamorig_LeftForeArm
						{
							OFFSET 0.311627 -0.003307 -0.007856
							CHANNELS 3 Xrotation Yrotation Zrotation
							JOINT mixamorig_LeftHand
							{
								OFFSET 0.267365 -0.006620 -0.009061
								CHANNELS 3 Xrotation Yrotation Zrotation
								End Site
								{
									OFFSET 0.069659 -0.001725 -0.002361
								}
							}
						}
					}
				}
				JOINT mixamorig_RightShoulder
				{
					OFFSET -0.059117 -0.012078 -0.154003
					CHANNELS 3 Xrotation Yrotation Zrotation
					JOINT mixamorig_RightArm
					{
						OFFSET -0.105067 0.001420 0.016849
						CHANNELS 3 Xrotation Yrotation Zrotation
						JOINT mixamorig_RightForeArm
						{
							OFFSET -0.311626 -0.007328 -0.007857
							CHANNELS 3 Xrotation Yrotation Zrotation
							JOINT mixamorig_RightHand
							{
								OFFSET -0.267364 -0.007689 -0.009061
								CHANNELS 3 Xrotation Yrotation Zrotation
								End Site
								{
									OFFSET -0.069651 -0.002003 -0.002361
								}
							}
						}
					}
				}
			}
		}
	}
	JOINT mixamorig_LeftUpLeg
	{
		OFFSET 0.086025 -0.002322 0.060046
		CHANNELS 3 Xrotation Yrotation Zrotation
		JOINT mixamorig_LeftLeg
		{
			OFFSET 0.005130 0.001862 0.314250
			CHANNELS 3 Xrotation Yrotation Zrotation
			JOINT mixamorig_LeftFoot
			{
				OFFSET 0.029099 0.003055 0.305414
				CHANNELS 3 Xrotation Yrotation Zrotation
				JOINT mixamorig_LeftToeBase
				{
					OFFSET 0.032406 0.158115 0.089037
					CHANNELS 3 Xrotation Yrotation Zrotation
					JOINT mixamorig_LeftToe_End
					{
						OFFSET 0.020098 0.068010 -0.003802
						CHANNELS 3 Xrotation Yrotation Zrotation
						End Site
						{
							OFFSET 0.019731 0.066766 -0.003732
						}
					}
				}
			}
		}
	}
	JOINT mixamorig_RightUpLeg
	{
		OFFSET -0.086024 0.004521 0.060047
		CHANNELS 3 Xrotation Yrotation Zrotation
		JOINT mixamorig_RightLeg
		{
			OFFSET -0.005129 0.001774 0.314251
			CHANNELS 3 Xrotation Yrotation Zrotation
			JOINT mixamorig_RightFoot
			{
				OFFSET -0.029099 0.004797 0.305414
				CHANNELS 3 Xrotation Yrotation Zrotation
				JOINT mixamorig_RightToeBase
				{
					OFFSET -0.032405 0.159308 0.089036
					CHANNELS 3 Xrotation Yrotation Zrotation
					JOINT mixamorig_RightToe_End
					{
						OFFSET -0.020098 0.066652 -0.003802
						CHANNELS 3 Xrotation Yrotation Zrotation
						End Site
						{
							OFFSET -0.020098 0.066652 -0.003802
						}
					}
				}
			}
		}
	}
}
MOTION
Frames: 6
Frame Time: 0.033333
0.030842 0.701157 -0.205850 85.436371 -6.294772 -301.870975 6.130889 8.875027 -14.893482 0.530465 -8.619260 -2.021337 0.808212 -8.608496 -1.950492 1.043603 -6.209892 8.359293 0.590514 10.207650 51.519424 -0.000002 0.000000 -0.000001 -0.089251 -1.017614 -3.933837 7.922511 -37.658733 0.963529 1.885389 1.903070 103.870068 0.000002 -0.000004 0.000001 0.567583 -4.181330 -2.291608 -45.548564 19.233268 13.504691 1.371919 -0.073994 -45.387867 -0.000004 0.000000 -0.000001 -3.860244 17.404596 -3.849567 31.044309 5.000934 8.607813 -21.243259 -18.113243 5.422550 -1.110436 -0.000024 0.000008 -0.000001 0.000001 -0.000001 -6.227331 -13.460308 5.216159 46.974407 6.050420 12.451246 -29.207323 12.305901 9.297298 -2.678440 -0.000033 -0.000003 -0.000000 -0.000000 0.000001 
0.006607 0.689294 -0.228501 86.130106 -10.461791 -302.716771 8.507717 6.215817 -11.006157 0.395836 -6.358937 -1.552079 0.553578 -6.366349 -1.464864 0.372057 -4.844395 7.189150 -2.881808 11.780664 44.615684 0.000001 0.000000 -0.000000 0.569863 -5.445788 -0.240885 -0.947727 -43.799230 -0.428593 1.821463 2.113544 110.367094 -0.000000 -0.000001 0.000001 0.635903 1.482543 -0.640370 -52.306156 22.560574 16.544515 1.692051 -0.498000 -61.113842 0.000001 0.000002 0.000000 -3.358212 24.183086 -16.486162 37.586555 9.308285 8.228444 -21.545663 -19.907334 3.219192 -0.287261 -0.000048 -0.000004 -0.000000 0.000000 0.000002 -3.870804 -8.105322 3.214032 52.384122 9.078578 12.817237 -33.613840 9.851811 10.477441 -4.320034 -0.000043 0.000039 -0.000001 -0.000000 0.000005 
-0.006515 0.682736 -0.242443 85.529651 -15.268995 -300.816284 12.638788 5.278497 -6.293350 2.591534 -3.935214 -0.881961 2.654444 -3.920976 -0.767699 -4.973731 -3.805509 4.172035 -7.295014 8.804690 27.566679 -0.000000 -0.000000 -0.000001 1.619391 -6.935866 5.534232 -9.113352 -37.205946 9.384793 1.778952 2.219525 113.738175 0.000005 -0.000002 0.000001 0.564325 1.107195 -0.301969 -59.317024 28.032770 18.024466 1.861273 -0.902213 -74.071585 -0.000002 0.000002 -0.000000 -0.058920 28.703020 -18.830340 42.467456 10.060774 5.713008 -21.026780 -19.766356 4.246870 -6.535403 0.000004 0.000021 -0.000000 0.000000 0.000006 0.718942 -4.253330 2.648381 53.031809 8.902323 12.848020 -35.954860 8.165654 9.697286 -3.185696 -0.000039 -0.000030 -0.000000 0.000001 -0.000000 
-0.016188 0.693868 -0.245344 85.318488 -15.248396 -295.975511 12.990801 3.531689 -2.304073 3.194538 -2.979519 -0.336394 3.214464 -2.967898 -0.245579 -8.195697 -2.794122 0.567528 -9.027533 7.120422 8.131444 -0.000000 0.000000 -0.000003 1.199884 -1.457527 5.460894 -24.566739 -26.293115 11.217039 1.846198 2.041817 108.127885 -0.000000 -0.000001 0.000001 0.864084 -1.623793 -3.394584 -57.335538 30.042430 14.661201 1.889609 -1.011394 -77.399273 -0.000004 0.000000 -0.000003 -1.840464 27.856484 -15.372442 49.868994 9.743089 3.625316 -14.140434 -17.931881 0.686864 -16.675075 -0.000050 0.000027 -0.000000 -0.000001 -0.000001 2.539098 -3.381611 1.561599 48.755345 5.842091 12.510622 -34.418238 7.690688 8.448520 -1.725516 -0.000022 0.000008 -0.000000 0.000001 0.000001 
-0.023845 0.718124 -0.237198 86.765047 -11.333065 -290.816396 9.752991 2.262012 0.403577 1.225639 -1.927501 0.031744 1.226308 -1.926998 0.071359 -7.227348 -2.091430 -2.356934 -8.116488 5.703704 -7.452554 -0.000001 -0.000001 -0.000001 0.743445 3.481570 5.570000 -26.724194 -15.214108 13.720401 1.924257 1.196374 82.866423 0.000000 -0.000000 0.000000 0.869363 -3.658790 -4.841146 -46.999662 27.921417 5.401397 1.844751 -0.848504 -72.413515 0.000001 0.000003 -0.000001 -6.801035 26.729196 -11.896947 51.141629 4.597309 3.838109 -7.632507 -9.448282 3.084132 -15.091491 -3.295857 -0.134563 -0.000000 -0.000000 0.000004 2.588687 -2.686517 -1.898097 38.746055 2.553689 12.089445 -28.773511 7.622589 9.508329 -1.419359 -0.000005 -0.000007 -0.000000 0.000001 0.000001 
-0.026871 0.737519 -0.218929 89.308480 -6.162446 -286.512885 4.223205 3.157773 1.365801 -0.041172 -0.557906 0.193740 -0.043963 -0.556676 0.197022 -6.363420 -1.470885 -4.451348 -6.244110 2.377991 -19.117838 -0.000002 -0.000002 0.000002 0.577837 7.046911 8.021715 -17.505430 -5.944960 16.216348 1.524077 0.243810 52.011371 0.000000 -0.000001 0.000001 0.672383 -5.881177 -4.789049 -37.436608 22.158339 -3.358629 1.719324 -0.548545 -62.809443 -0.000000 -0.000002 -0.000001 -7.413734 22.477466 -11.552999 34.243065 3.590634 6.859360 -7.388681 -10.263613 3.236169 -4.954356 -3.843053 -0.177679 -0.000001 -0.000001 -0.000001 2.270760 -2.592638 -4.067723 26.241285 -0.270649 11.729599 -21.441697 8.537098 9.467493 -1.906248 -0.000039 0.000018 0.000000 -0.000000 0.000001 
